<?xml version="1.0"?>
<svg version="1.1" id="圖層_1" xmlns="http://www.w3.org/2000/svg" x="0" y="0" viewBox="0 0 100 100" xml:space="preserve"><g><path d="M60.032 32.856l-6.336-3.658a5.298 5.298 0 0 0-7.237 1.939L20.684 75.778a5.298 5.298 0 0 0 1.939 7.237l6.336 3.658a5.298 5.298 0 0 0 7.237-1.939L61.97 40.092a5.296 5.296 0 0 0-1.938-7.236z" fill="#e0e0e0" stroke="#333" stroke-width="3.5" stroke-miterlimit="10"/></g><g><path d="M38.586 38.799a2.09 2.09 0 0 1 1.498-3.851l24.454 5.412a2.09 2.09 0 0 1-.905 4.081l-24.454-5.412a2.084 2.084 0 0 1-.593-.23z" fill="#333"/></g><g><path d="M33.81 47.073a2.09 2.09 0 0 1 1.498-3.851l24.454 5.412a2.09 2.09 0 0 1-.905 4.081l-24.454-5.412a2.061 2.061 0 0 1-.593-.23z" fill="#333"/></g><g><path d="M29.033 55.346a2.09 2.09 0 0 1 1.498-3.851l24.454 5.412a2.09 2.09 0 0 1-.905 4.081l-24.454-5.412a2.073 2.073 0 0 1-.593-.23z" fill="#333"/></g><g><path d="M24.256 63.62a2.09 2.09 0 0 1 1.498-3.851l24.454 5.412a2.09 2.09 0 0 1-.905 4.081L24.849 63.85a2.073 2.073 0 0 1-.593-.23z" fill="#333"/></g><g><path d="M19.479 71.894a2.09 2.09 0 0 1 1.498-3.851l24.454 5.412a2.09 2.09 0 0 1-.905 4.081l-24.454-5.412a2.145 2.145 0 0 1-.593-.23z" fill="#333"/></g><g><path d="M14.703 80.167a2.09 2.09 0 0 1 1.498-3.851l24.454 5.412a2.09 2.09 0 0 1-.905 4.081l-24.454-5.412a2.061 2.061 0 0 1-.593-.23z" fill="#333"/></g><g><path d="M73.142 50.388L31.956 26.609a6.089 6.089 0 0 1-2.229-8.317l2.452-4.247a6.089 6.089 0 0 1 8.317-2.229l41.186 23.779a6.089 6.089 0 0 1 2.229 8.317l-2.452 4.247a6.088 6.088 0 0 1-8.317 2.229z" fill="#e0e0e0" stroke="#333" stroke-width="3.5" stroke-miterlimit="10"/></g><path d="M82.492 34.195l-20.593-11.89-36.916 63.94 3.168 1.829c3.302 1.907 7.54.771 9.447-2.531l.108-.187 2.044.452a2.09 2.09 0 0 0 .905-4.081l-.757-.168 2.585-4.478 2.045.452a2.09 2.09 0 1 0 .905-4.081l-.757-.168 2.585-4.478 2.045.452a2.09 2.09 0 1 0 .905-4.081l-.757-.168 2.585-4.478 2.045.452a2.09 2.09 0 0 0 .905-4.081l-.757-.168 2.585-4.478 2.045.452a2.09 2.09 0 0 0 .905-4.081l-.757-.168 1.894-3.28 11.436 6.603c3.679 2.124 8.401.859 10.526-2.821l2.452-4.247c2.118-3.673.853-8.395-2.826-10.519z" opacity=".2"/><path fill="none" stroke="#fff" stroke-width="3.5" stroke-linecap="round" stroke-miterlimit="10" d="M37.753 16.991l7.47 4.314"/><path fill="none" stroke="#fff" stroke-width="3.5" stroke-linecap="round" stroke-miterlimit="10" d="M50.026 24.077l1.467.847"/><metadata xmlns:d="https://loading.io/stock/"><d:name>screw</d:name><d:tags>screw,bolt,fastener,fix,hand tool,workshop,build,construction,repair</d:tags><d:license>by</d:license><d:slug>736k3m</d:slug></metadata></svg>
